<svg xmlns="http://www.w3.org/2000/svg" width="161.501" height="137" viewBox="0 0 161.501 137" fill="none">
  <path d="M 78.779 120.749 L 65.111 127.473 L 4.308 97.587 C -1.336 94.813 -1.326 86.913 4.308 84.149 L 4.328 84.149 L 4.888 84.413 L 78.789 120.749 L 78.779 120.749 Z" fill="currentColor" fill-rule="nonzero"></path>
  <path d="M 139.462 69.171 L 134.197 71.739 L 125.775 75.876 L 87.151 56.88 L 70.556 65.045 L 56.869 58.321 L 82.435 45.765 C 85.402 44.304 88.899 44.304 91.866 45.765 L 139.472 69.171 L 139.462 69.171 Z" fill="currentColor" fill-rule="nonzero"></path>
  <path d="M 161.321 80.13 L 147.864 86.726 L 91.167 114.603 C 88.639 115.848 85.652 115.848 83.125 114.603 L 28.806 87.893 L 26.398 86.717 L 12.731 79.993 L 10.323 78.816 L 4.189 75.807 C -1.396 73.053 -1.396 65.231 4.189 62.487 L 4.328 62.418 L 26.408 73.269 L 40.095 79.993 L 87.151 103.125 L 134.197 79.993 L 147.654 73.396 L 152.17 75.611 L 161.331 80.12 L 161.321 80.13 Z" fill="currentColor" fill-rule="nonzero"></path>
  <path d="M 100.818 28.445 L 87.141 35.179 L 48.457 54.175 L 36.588 48.352 L 34.78 47.47 L 87.141 21.721 L 100.818 28.445 Z" fill="currentColor" fill-rule="nonzero"></path>
  <path d="M 64.572 70.328 L 62.164 69.152 L 48.497 62.428 L 46.089 61.252 L 40.095 58.301 L 26.408 51.577 L 24.02 50.421 L 18.026 47.47 L 18.006 47.451 L 34.47 39.344 L 42.922 35.208 L 56.42 28.562 L 87.161 13.468 L 87.181 13.487 L 100.868 6.763 L 87.141 0 L 20.793 32.601 L 4.288 40.727 C -1.336 43.491 -1.336 51.371 4.288 54.135 L 4.328 54.155 L 10.323 57.105 L 12.731 58.282 L 26.398 65.006 L 28.805 66.182 L 32.412 67.956 L 34.82 69.132 L 48.487 75.856 L 50.895 77.032 L 87.131 94.852 L 100.798 88.128 L 64.562 70.308 L 64.572 70.328 Z" fill="currentColor" fill-rule="nonzero"></path>
  <path d="M 154.038 98.077 L 161.501 101.743 L 92.216 135.824 C 89.029 137.392 85.283 137.392 82.096 135.824 L 73.484 131.589 L 147.874 95.048 L 151.66 96.901 L 154.048 98.077 L 154.038 98.077 Z" fill="currentColor" fill-rule="nonzero"></path>
</svg>