<?xml version="1.0" encoding="UTF-8"?>
<svg xmlns="http://www.w3.org/2000/svg" xmlns:xlink="http://www.w3.org/1999/xlink" viewBox="6 0 560 280" font-family="'Space Grotesk', sans-serif" role="img" aria-label="What LUCI is connection study: Option 2 — Soft enclosure">
  <defs>
    <style>
      @import url('https://fonts.googleapis.com/css2?family=Space+Grotesk:wght@400;500;600;700&amp;display=swap');
      .nm { font-weight:700; font-size:20px; letter-spacing:-.01em; fill:#10232D; text-anchor:middle; }
      .rl { font-weight:700; font-size:9.5px; letter-spacing:.15em; fill:#176B54; text-anchor:middle; }
      .tick { font-size:8px; font-weight:600; letter-spacing:0.07em; fill:#F5F8FA; }
      .tick-sep { fill:#68E3BE; font-weight:700; }
    </style>
    <clipPath id="screenClip"><rect x="165" y="46" width="138" height="96" rx="2"/></clipPath>
    <clipPath id="tickerClip"><rect x="43" y="248" width="474" height="24"/></clipPath>
  </defs>

  <!-- ===================== LUCI : The Orchestration Platform ===================== -->

  <rect x="40" y="18" width="84" height="10" fill="#16303C"/>
  <rect x="40" y="176" width="84" height="13" fill="#16303C"/>
  <rect x="44" y="28" width="9" height="148" fill="#2A4754"/>
  <rect x="111" y="28" width="9" height="148" fill="#2A4754"/>
  <rect x="50" y="31" width="64" height="14" fill="#10232D"/>
  <g fill="#34525C"><rect x="56" y="35" width="3.4" height="6"/><rect x="61" y="35" width="3.4" height="6"/><rect x="66" y="35" width="3.4" height="6"/><rect x="71" y="35" width="3.4" height="6"/><rect x="76" y="35" width="3.4" height="6"/><rect x="81" y="35" width="3.4" height="6"/><rect x="86" y="35" width="3.4" height="6"/><rect x="91" y="35" width="3.4" height="6"/><rect x="96" y="35" width="3.4" height="6"/><rect x="101" y="35" width="3.4" height="6"/></g>
  <circle cx="108.5" cy="34.5" r="1.3" fill="#68E3BE"/>
  <rect x="50" y="48" width="64" height="14" fill="#FFFFFF" stroke="#10232D" stroke-width="1.3"/>
  <circle cx="57" cy="55" r="2.2" fill="#68E3BE"/>
  <rect x="63" y="52.5" width="20" height="5" fill="#10232D"/>
  <circle cx="99" cy="55" r="1.6" fill="#68E3BE"/><circle cx="105" cy="55" r="1.6" fill="#9AA7AD"/>
  <rect x="50" y="65" width="64" height="24" fill="#F4F7F8" stroke="#10232D" stroke-width="1.3"/>
  <circle cx="59" cy="77" r="4" fill="none" stroke="#10232D" stroke-width="1.3"/><circle cx="59" cy="77" r="1.1" fill="#10232D"/>
  <g fill="#DCE3E6" stroke="#10232D" stroke-width="0.8"><rect x="68" y="69" width="3.6" height="16"/><rect x="73" y="69" width="3.6" height="16"/><rect x="78" y="69" width="3.6" height="16"/><rect x="83" y="69" width="3.6" height="16"/><rect x="88" y="69" width="3.6" height="16"/><rect x="93" y="69" width="3.6" height="16"/><rect x="98" y="69" width="3.6" height="16"/><rect x="103" y="69" width="3.6" height="16"/><rect x="108" y="69" width="3.6" height="16"/></g>
  <rect x="50" y="92" width="64" height="14" fill="#FFFFFF" stroke="#10232D" stroke-width="1.3"/>
  <g fill="#10232D"><rect x="57" y="95" width="2.6" height="8"/><rect x="62" y="95" width="2.6" height="8"/><rect x="67" y="95" width="2.6" height="8"/><rect x="72" y="95" width="2.6" height="8"/><rect x="77" y="95" width="2.6" height="8"/><rect x="82" y="95" width="2.6" height="8"/><rect x="87" y="95" width="2.6" height="8"/><rect x="92" y="95" width="2.6" height="8"/></g>
  <circle cx="105" cy="99" r="1.6" fill="#68E3BE"/>
  <rect x="50" y="109" width="64" height="14" fill="#FFFFFF" stroke="#10232D" stroke-width="1.3"/>
  <rect x="56" y="112" width="22" height="8" fill="#10232D"/>
  <line x1="59" y1="115" x2="74" y2="115" stroke="#68E3BE" stroke-width="1.1"/>
  <circle cx="99" cy="116" r="1.7" fill="#68E3BE"/><circle cx="106" cy="116" r="1.7" fill="#9AA7AD"/>
  <rect x="50" y="126" width="64" height="12" fill="#10232D"/>
  <g fill="#68E3BE"><circle cx="58" cy="132" r="1.4"/><circle cx="66" cy="132" r="1.4"/><circle cx="74" cy="132" r="1.4"/><circle cx="82" cy="132" r="1.4"/><circle cx="90" cy="132" r="1.4"/></g>
  <rect x="101" y="129" width="9" height="6" fill="#2b9e80"/>
  <rect x="50" y="141" width="64" height="33" fill="#FFFFFF" stroke="#10232D" stroke-width="1.3"/>
  <rect x="55" y="146" width="20" height="14" fill="#10232D"/>
  <line x1="58" y1="150" x2="72" y2="150" stroke="#68E3BE" stroke-width="1.1"/><line x1="58" y1="154" x2="69" y2="154" stroke="#3C5A66" stroke-width="1.1"/>
  <circle cx="86" cy="151" r="3.2" fill="none" stroke="#10232D" stroke-width="1.2"/><circle cx="86" cy="151" r="1" fill="#10232D"/>
  <circle cx="98" cy="151" r="3.2" fill="none" stroke="#10232D" stroke-width="1.2"/><circle cx="98" cy="151" r="1" fill="#10232D"/>
  <g fill="#C4CDD2"><circle cx="56" cy="166" r="1"/><circle cx="61" cy="166" r="1"/><circle cx="66" cy="166" r="1"/><circle cx="71" cy="166" r="1"/><circle cx="76" cy="166" r="1"/><circle cx="81" cy="166" r="1"/><circle cx="86" cy="166" r="1"/><circle cx="91" cy="166" r="1"/><circle cx="96" cy="166" r="1"/><circle cx="101" cy="166" r="1"/><circle cx="106" cy="166" r="1"/><circle cx="56" cy="170" r="1"/><circle cx="61" cy="170" r="1"/><circle cx="66" cy="170" r="1"/><circle cx="71" cy="170" r="1"/><circle cx="76" cy="170" r="1"/><circle cx="81" cy="170" r="1"/><circle cx="86" cy="170" r="1"/><circle cx="91" cy="170" r="1"/><circle cx="96" cy="170" r="1"/><circle cx="101" cy="170" r="1"/><circle cx="106" cy="170" r="1"/></g>
  <g fill="#6B8390">
    <circle cx="48.5" cy="38" r="1.4"/><circle cx="115.5" cy="38" r="1.4"/>
    <circle cx="48.5" cy="55" r="1.4"/><circle cx="115.5" cy="55" r="1.4"/>
    <circle cx="48.5" cy="77" r="1.4"/><circle cx="115.5" cy="77" r="1.4"/>
    <circle cx="48.5" cy="99" r="1.4"/><circle cx="115.5" cy="99" r="1.4"/>
    <circle cx="48.5" cy="116" r="1.4"/><circle cx="115.5" cy="116" r="1.4"/>
    <circle cx="48.5" cy="132" r="1.4"/><circle cx="115.5" cy="132" r="1.4"/>
    <circle cx="48.5" cy="157" r="1.4"/><circle cx="115.5" cy="157" r="1.4"/>
  </g>

  <g transform="translate(207,188) scale(0.77) translate(-234,-188)">
    <rect x="158" y="38" width="152" height="110" rx="6" fill="#10232D"/>
    <g clip-path="url(#screenClip)">
      <rect x="165" y="46" width="138" height="96" fill="#0A1A22"/>
      <rect x="165" y="46" width="138" height="14" fill="#10232D"/>
      <text x="172" y="56" fill="#68E3BE" font-size="7" font-weight="700" letter-spacing="0.12em">LUCI</text>
      <g opacity="0.9">
        <rect x="172" y="66" width="48" height="32" fill="none" stroke="#2b9e80" stroke-width="1" opacity="0.7"/>
        <rect x="226" y="66" width="32" height="18" fill="none" stroke="#314955" stroke-width="0.9"/>
        <rect x="262" y="66" width="32" height="18" fill="none" stroke="#314955" stroke-width="0.9"/>
        <rect x="172" y="102" width="122" height="32" fill="none" stroke="#314955" stroke-width="0.9"/>
        <circle cx="188" cy="82" r="3" fill="#68E3BE" opacity="0.8"/>
        <circle cx="240" cy="118" r="2.5" fill="#68E3BE" opacity="0.55"/>
      </g>
    </g>
    <rect x="158" y="145" width="152" height="3" fill="#0A1A22"/>
    <path d="M156,148 L312,148 L330,188 L138,188 Z" fill="#16303C"/>
    <path d="M168,153 L300,153 L312,180 L156,180 Z" fill="#20404F"/>
    <g stroke="#0C1E27" stroke-width="1.1">
      <line x1="165.8" y1="158" x2="302.2" y2="158"/>
      <line x1="163.6" y1="163" x2="304.4" y2="163"/>
      <line x1="161.3" y1="168" x2="306.7" y2="168"/>
      <line x1="159.1" y1="173" x2="308.9" y2="173"/>
      <line x1="167" y1="155" x2="157" y2="178"/>
      <line x1="180.4" y1="155" x2="172.3" y2="178"/>
      <line x1="193.8" y1="155" x2="187.6" y2="178"/>
      <line x1="207.2" y1="155" x2="202.9" y2="178"/>
      <line x1="220.6" y1="155" x2="218.2" y2="178"/>
      <line x1="234" y1="155" x2="233.5" y2="178"/>
      <line x1="247.4" y1="155" x2="248.8" y2="178"/>
      <line x1="260.8" y1="155" x2="264.1" y2="178"/>
      <line x1="274.2" y1="155" x2="279.4" y2="178"/>
      <line x1="287.6" y1="155" x2="294.7" y2="178"/>
    </g>
    <path d="M212,181 L258,181 L262,187 L208,187 Z" fill="#2A4754"/>
  </g>

  <text class="nm" x="160" y="216">LUCI</text>
  <text class="rl" x="160" y="234">THE ORCHESTRATION PLATFORM</text>

  <g stroke="#D4D9DC" stroke-width="1">
    <line x1="350" y1="34" x2="350" y2="104"/>
    <line x1="350" y1="150" x2="350" y2="246"/>
  </g>
  <text x="350" y="148" font-size="54" font-weight="400" fill="#2b9e80" text-anchor="middle">+</text>

  <g transform="translate(462,188) scale(1.12) translate(-462,-188)">
    <g transform="translate(0,18)">
      <path d="M444,122 Q444,80 462,80 Q480,80 480,122 Z" fill="#2A4754"/>
      <circle cx="462" cy="62" r="14" fill="#2A4754"/>
      <path d="M418,121 Q418,93 438,93 Q458,93 458,121 Z" fill="#10232D"/>
      <circle cx="436" cy="78" r="12.5" fill="#10232D"/>
      <path d="M466,121 Q466,93 486,93 Q506,93 506,121 Z" fill="#10232D"/>
      <circle cx="488" cy="78" r="12.5" fill="#10232D"/>
      <g fill="#10232D">
        <rect x="458" y="118" width="8" height="12" rx="1.6"/>
        <rect x="458" y="118" width="8" height="12" rx="1.6" transform="rotate(45 462 146)"/>
        <rect x="458" y="118" width="8" height="12" rx="1.6" transform="rotate(90 462 146)"/>
        <rect x="458" y="118" width="8" height="12" rx="1.6" transform="rotate(135 462 146)"/>
        <rect x="458" y="118" width="8" height="12" rx="1.6" transform="rotate(180 462 146)"/>
        <rect x="458" y="118" width="8" height="12" rx="1.6" transform="rotate(225 462 146)"/>
        <rect x="458" y="118" width="8" height="12" rx="1.6" transform="rotate(270 462 146)"/>
        <rect x="458" y="118" width="8" height="12" rx="1.6" transform="rotate(315 462 146)"/>
      </g>
      <circle cx="462" cy="146" r="22" fill="#10232D"/>
      <circle cx="462" cy="146" r="9" fill="#68E3BE"/>
    </g>
  </g>

  <text class="nm" x="462" y="216">Systems</text>
  <text class="rl" x="462" y="234">THE EMBEDDED OPERATION</text>


  <!-- Option 2 · Soft enclosure — managed-zone tint behind ribbon -->
  <rect x="48" y="238" width="464" height="34" fill="#EEF2F4" aria-hidden="true"/>
  <g id="control-link" stroke="#D4D9DC" stroke-width="1" fill="none" aria-hidden="true">
    <line x1="160" y1="238" x2="160" y2="246"/>
    <line x1="462" y1="238" x2="462" y2="246"/>
    <line x1="160" y1="246" x2="462" y2="246"/>
    <circle cx="160" cy="246" r="1.3" fill="#68E3BE" stroke="none"/>
    <circle cx="350" cy="246" r="1.3" fill="#68E3BE" stroke="none"/>
    <circle cx="462" cy="246" r="1.3" fill="#68E3BE" stroke="none"/>
  </g>

  <!-- Property systems — LED ribbon ticker (static) -->
  <g id="property-ticker" aria-hidden="true">
    <rect x="40" y="248" width="480" height="24" fill="#10232D"/>
    <rect x="40" y="248" width="3" height="24" fill="#68E3BE"/>
    <g clip-path="url(#tickerClip)">
      <text y="263" class="tick">
        <tspan x="52">LED Walls</tspan><tspan class="tick-sep"> · </tspan><tspan>Lighting</tspan><tspan class="tick-sep"> · </tspan><tspan>LED Ribbon</tspan><tspan class="tick-sep"> · </tspan><tspan>Digital Signage</tspan><tspan class="tick-sep"> · </tspan><tspan>Sound</tspan><tspan class="tick-sep"> · </tspan><tspan>Video</tspan><tspan class="tick-sep"> · </tspan><tspan>IPTV</tspan><tspan class="tick-sep"> · </tspan><tspan>BMS</tspan><tspan class="tick-sep"> · </tspan><tspan>Audio DSP</tspan><tspan class="tick-sep"> · </tspan><tspan>Scoreboards</tspan><tspan class="tick-sep"> · </tspan><tspan>Casino Floor</tspan><tspan class="tick-sep"> · </tspan><tspan>Event AV</tspan><tspan class="tick-sep"> · </tspan><tspan>LED Walls</tspan><tspan class="tick-sep"> · </tspan><tspan>Lighting</tspan><tspan class="tick-sep"> · </tspan><tspan>Signage</tspan><tspan class="tick-sep"> · </tspan>
      </text>
    </g>
  </g>
</svg>
