<?xml version="1.0" encoding="utf-8"?>
<!-- Generator: Adobe Illustrator 16.0.0, SVG Export Plug-In . SVG Version: 6.00 Build 0)  -->
<!DOCTYPE svg PUBLIC "-//W3C//DTD SVG 1.1//EN" "http://www.w3.org/Graphics/SVG/1.1/DTD/svg11.dtd">
<svg version="1.1" xmlns="http://www.w3.org/2000/svg" xmlns:xlink="http://www.w3.org/1999/xlink" x="0px" y="0px" width="144px"
	 height="44.161px" viewBox="0 0 144 44.161" enable-background="new 0 0 144 44.161" xml:space="preserve">
<pattern  x="-472.582" y="-167.665" width="72" height="72" patternUnits="userSpaceOnUse" id="Grid_.25_inch_Lines" viewBox="72.25 -144.25 72 72" overflow="visible">
	<g>
		<polygon fill="none" points="72.25,-144.25 144.25,-144.25 144.25,-72.25 72.25,-72.25 		"/>
		<g>
			<line fill="none" stroke="#000000" stroke-width="0.3" x1="117.25" y1="-72.5" x2="117.25" y2="0"/>
			<line fill="none" stroke="#000000" stroke-width="0.3" x1="81.25" y1="-72.5" x2="81.25" y2="0"/>
			<line fill="none" stroke="#000000" stroke-width="0.3" x1="135.25" y1="-72.5" x2="135.25" y2="0"/>
			<line fill="none" stroke="#000000" stroke-width="0.3" x1="99.25" y1="-72.5" x2="99.25" y2="0"/>
		</g>
		<g>
			<line fill="none" stroke="#000000" stroke-width="0.3" x1="144" y1="-135.25" x2="216.5" y2="-135.25"/>
			<line fill="none" stroke="#000000" stroke-width="0.3" x1="144" y1="-99.25" x2="216.5" y2="-99.25"/>
			<line fill="none" stroke="#000000" stroke-width="0.3" x1="144" y1="-117.25" x2="216.5" y2="-117.25"/>
			<line fill="none" stroke="#000000" stroke-width="0.3" x1="144" y1="-81.25" x2="216.5" y2="-81.25"/>
		</g>
		<g>
			<line fill="none" stroke="#000000" stroke-width="0.3" x1="72" y1="-135.25" x2="144.5" y2="-135.25"/>
			<line fill="none" stroke="#000000" stroke-width="0.3" x1="72" y1="-99.25" x2="144.5" y2="-99.25"/>
			<line fill="none" stroke="#000000" stroke-width="0.3" x1="72" y1="-117.25" x2="144.5" y2="-117.25"/>
			<line fill="none" stroke="#000000" stroke-width="0.3" x1="72" y1="-81.25" x2="144.5" y2="-81.25"/>
			<line fill="none" stroke="#000000" stroke-width="0.3" x1="117.25" y1="-144.5" x2="117.25" y2="-72"/>
			<line fill="none" stroke="#000000" stroke-width="0.3" x1="81.25" y1="-144.5" x2="81.25" y2="-72"/>
			<line fill="none" stroke="#000000" stroke-width="0.3" x1="135.25" y1="-144.5" x2="135.25" y2="-72"/>
			<line fill="none" stroke="#000000" stroke-width="0.3" x1="99.25" y1="-144.5" x2="99.25" y2="-72"/>
		</g>
		<g>
			<line fill="none" stroke="#000000" stroke-width="0.3" x1="0" y1="-135.25" x2="72.5" y2="-135.25"/>
			<line fill="none" stroke="#000000" stroke-width="0.3" x1="0" y1="-99.25" x2="72.5" y2="-99.25"/>
			<line fill="none" stroke="#000000" stroke-width="0.3" x1="0" y1="-117.25" x2="72.5" y2="-117.25"/>
			<line fill="none" stroke="#000000" stroke-width="0.3" x1="0" y1="-81.25" x2="72.5" y2="-81.25"/>
		</g>
		<g>
			<line fill="none" stroke="#000000" stroke-width="0.3" x1="117.25" y1="-216.5" x2="117.25" y2="-144"/>
			<line fill="none" stroke="#000000" stroke-width="0.3" x1="81.25" y1="-216.5" x2="81.25" y2="-144"/>
			<line fill="none" stroke="#000000" stroke-width="0.3" x1="135.25" y1="-216.5" x2="135.25" y2="-144"/>
			<line fill="none" stroke="#000000" stroke-width="0.3" x1="99.25" y1="-216.5" x2="99.25" y2="-144"/>
		</g>
	</g>
</pattern>
<g id="bg">
	<pattern  id="SVGID_1_" xlink:href="#Grid_.25_inch_Lines" patternTransform="matrix(1.0343 0 0 0.9286 109.2935 -603.7417)">
	</pattern>
	<rect x="-382.582" y="-257.665" display="none" opacity="0.03" fill="url(#SVGID_1_)" width="612" height="792"/>
</g>
<g id="Content">
	<g>
		<g>
			<path fill="#58595B" d="M28.786,17.135L21.894,3.04v11.191c0,1.029,0.118,1.673,0.355,1.928c0.323,0.346,0.837,0.519,1.538,0.519
				h0.632v0.457h-6.208v-0.457h0.631c0.755,0,1.289-0.215,1.604-0.643c0.194-0.264,0.291-0.864,0.291-1.804V3.285
				c0-0.74-0.088-1.275-0.263-1.604c-0.123-0.238-0.349-0.438-0.678-0.599C19.468,0.92,18.938,0.84,18.211,0.84V0.384h5.051
				l6.473,13.106l6.366-13.106h5.051V0.84h-0.618c-0.763,0-1.302,0.216-1.618,0.643c-0.193,0.265-0.29,0.864-0.29,1.803v10.946
				c0,1.029,0.123,1.673,0.369,1.928c0.324,0.346,0.837,0.519,1.539,0.519h0.618v0.457h-7.575v-0.457h0.63
				c0.763,0,1.297-0.215,1.604-0.643c0.193-0.264,0.29-0.864,0.29-1.804V3.04l-6.88,14.095H28.786z"/>
			<path fill="#58595B" d="M45.865,1.297v6.622h3.921c1.016,0,1.696-0.144,2.038-0.432c0.455-0.38,0.711-1.046,0.763-2.002h0.486
				v5.831h-0.486c-0.122-0.815-0.245-1.339-0.368-1.569c-0.158-0.288-0.417-0.514-0.776-0.679S50.53,8.82,49.786,8.82h-3.921v5.522
				c0,0.74,0.035,1.192,0.105,1.353s0.192,0.289,0.368,0.383c0.175,0.095,0.508,0.143,0.999,0.143h3.026
				c1.008,0,1.74-0.066,2.196-0.197c0.456-0.133,0.895-0.392,1.315-0.778c0.543-0.512,1.101-1.281,1.671-2.311h0.525l-1.538,4.2
				H40.787v-0.457h0.632c0.421,0,0.82-0.095,1.196-0.285c0.281-0.13,0.472-0.328,0.573-0.592c0.101-0.264,0.151-0.803,0.151-1.619
				V3.299c0-1.063-0.114-1.718-0.342-1.964c-0.316-0.33-0.842-0.495-1.579-0.495h-0.632V0.384h13.747l0.196,3.669h-0.513
				c-0.185-0.881-0.388-1.486-0.611-1.816c-0.225-0.329-0.555-0.581-0.993-0.754c-0.351-0.124-0.969-0.186-1.855-0.186H45.865z"/>
			<path fill="#58595B" d="M73.414,17.135h-4.762l-6.037-7.833c-0.447,0.017-0.812,0.025-1.092,0.025
				c-0.113,0-0.236-0.002-0.368-0.006s-0.269-0.01-0.408-0.02v4.867c0,1.056,0.123,1.71,0.369,1.966
				c0.332,0.361,0.832,0.543,1.499,0.543h0.697v0.457h-7.642v-0.457h0.671c0.753,0,1.292-0.23,1.617-0.691
				c0.184-0.256,0.275-0.861,0.275-1.817V3.348c0-1.055-0.122-1.709-0.367-1.964c-0.344-0.363-0.852-0.544-1.525-0.544h-0.671V0.384
				h6.497c1.894,0,3.291,0.129,4.189,0.389c0.899,0.26,1.662,0.736,2.289,1.433c0.626,0.696,0.939,1.526,0.939,2.49
				c0,1.028-0.356,1.923-1.071,2.681c-0.715,0.757-1.821,1.292-3.321,1.605l3.684,4.806c0.841,1.104,1.565,1.836,2.17,2.199
				c0.605,0.361,1.395,0.594,2.367,0.691V17.135z M60.747,8.524c0.166,0,0.312,0.002,0.435,0.006
				c0.122,0.005,0.224,0.006,0.303,0.006c1.7,0,2.983-0.345,3.847-1.037c0.864-0.692,1.296-1.573,1.296-2.644
				c0-1.046-0.348-1.897-1.046-2.551c-0.697-0.655-1.621-0.982-2.769-0.982c-0.509,0-1.197,0.078-2.065,0.233V8.524z"/>
			<path fill="#58595B" d="M80.01,16.678v0.457h-7.643v-0.457h0.631c0.736,0,1.272-0.201,1.605-0.605
				c0.211-0.263,0.315-0.897,0.315-1.903V3.348c0-0.847-0.057-1.408-0.171-1.68c-0.088-0.206-0.269-0.383-0.539-0.531
				c-0.386-0.198-0.79-0.297-1.211-0.297h-0.631V0.384h7.643V0.84h-0.645c-0.729,0-1.259,0.202-1.592,0.605
				c-0.22,0.264-0.329,0.897-0.329,1.902v10.821c0,0.85,0.056,1.409,0.171,1.681c0.087,0.206,0.272,0.383,0.553,0.531
				c0.377,0.199,0.776,0.297,1.197,0.297H80.01z"/>
			<path fill="#58595B" d="M91.537,0v5.794H91.05c-0.156-1.112-0.44-1.997-0.847-2.656c-0.408-0.658-0.989-1.182-1.744-1.568
				c-0.754-0.388-1.535-0.581-2.341-0.581c-0.913,0-1.667,0.262-2.264,0.785c-0.596,0.522-0.894,1.117-0.894,1.784
				c0,0.511,0.188,0.976,0.565,1.396c0.544,0.617,1.837,1.441,3.881,2.472c1.666,0.84,2.803,1.483,3.413,1.934
				c0.609,0.449,1.079,0.978,1.407,1.587c0.329,0.61,0.493,1.247,0.493,1.915c0,1.27-0.523,2.361-1.571,3.279
				c-1.048,0.919-2.397,1.378-4.045,1.378c-0.518,0-1.005-0.037-1.46-0.11c-0.272-0.042-0.836-0.192-1.691-0.452
				c-0.854-0.259-1.396-0.389-1.624-0.389c-0.22,0-0.393,0.062-0.52,0.186c-0.126,0.123-0.222,0.378-0.282,0.766H81.04v-5.744h0.487
				c0.228,1.202,0.534,2.103,0.921,2.699c0.385,0.598,0.976,1.093,1.769,1.488c0.793,0.396,1.665,0.593,2.611,0.593
				c1.096,0,1.962-0.271,2.598-0.814c0.636-0.544,0.954-1.187,0.954-1.928c0-0.412-0.121-0.826-0.361-1.248
				c-0.242-0.42-0.616-0.811-1.125-1.173c-0.343-0.247-1.275-0.772-2.803-1.575c-1.525-0.802-2.61-1.443-3.255-1.921
				s-1.134-1.005-1.467-1.582C81.036,5.736,80.87,5.102,80.87,4.41c0-1.202,0.49-2.237,1.473-3.106C83.324,0.435,84.574,0,86.091,0
				c0.948,0,1.952,0.219,3.013,0.655c0.491,0.206,0.838,0.309,1.04,0.309c0.227,0,0.413-0.063,0.559-0.191
				C90.847,0.645,90.963,0.388,91.05,0H91.537z"/>
			<path fill="#58595B" d="M108.273,0.384l0.197,3.929h-0.499c-0.096-0.691-0.229-1.187-0.395-1.483
				c-0.272-0.478-0.634-0.83-1.086-1.056c-0.451-0.227-1.045-0.341-1.782-0.341h-2.512v12.799c0,1.029,0.118,1.673,0.355,1.928
				c0.333,0.346,0.846,0.519,1.538,0.519h0.618v0.457h-7.563v-0.457h0.632c0.754,0,1.288-0.215,1.604-0.643
				c0.193-0.264,0.289-0.864,0.289-1.804V1.433h-2.144c-0.834,0-1.425,0.058-1.776,0.173c-0.456,0.157-0.846,0.457-1.17,0.902
				c-0.325,0.445-0.519,1.046-0.579,1.805h-0.501l0.211-3.929H108.273z"/>
			<path fill="#58595B" d="M117.829,11.525h-6.905l-1.211,2.644c-0.299,0.652-0.448,1.138-0.448,1.458
				c0,0.256,0.13,0.48,0.389,0.674c0.258,0.194,0.817,0.319,1.678,0.377v0.457h-5.618v-0.457c0.746-0.124,1.228-0.285,1.448-0.481
				c0.446-0.396,0.942-1.198,1.486-2.409c0,0,6.227-13.691,5.313-13.787h0.718h0.826l6.087,13.936c0.5,1.12,0.953,1.847,1.361,2.181
				c0.408,0.333,0.976,0.521,1.703,0.562v0.457h-7.037v-0.457c0.71-0.033,1.188-0.144,1.44-0.334c0.25-0.189,0.375-0.42,0.375-0.691
				c0-0.362-0.175-0.935-0.527-1.717L117.829,11.525z M117.46,10.611l-3.024-6.769l-3.104,6.769H117.46z"/>
			<path fill="#58595B" d="M144,17.135h-5.127l-7.991-7.833c-0.447,0.017-0.812,0.025-1.092,0.025c-0.114,0-0.236-0.002-0.368-0.006
				c-0.131-0.004-0.267-0.01-0.407-0.02v4.867c0,1.056,0.122,1.71,0.368,1.966c0.332,0.361,0.833,0.543,1.499,0.543h0.697v0.457
				h-7.643v-0.457h0.671c0.754,0,1.294-0.23,1.617-0.691c0.185-0.256,0.277-0.861,0.277-1.817V3.348
				c0-1.055-0.123-1.709-0.369-1.964c-0.342-0.363-0.85-0.544-1.525-0.544h-0.671V0.384h6.498c1.895,0,3.291,0.129,4.189,0.389
				c0.899,0.26,1.662,0.736,2.289,1.433s0.94,1.526,0.94,2.49c0,1.028-0.356,1.923-1.071,2.681
				c-0.715,0.757-1.822,1.292-3.322,1.605l5.637,4.806c1.544,1.458,1.841,1.687,2.444,2.054c0.264,0.16,1.486,0.739,2.459,0.837
				V17.135z M129.015,8.524c0.165,0,0.311,0.002,0.434,0.006c0.123,0.005,0.224,0.006,0.304,0.006c1.7,0,2.982-0.345,3.847-1.037
				c0.863-0.692,1.295-1.573,1.295-2.644c0-1.046-0.348-1.897-1.045-2.551c-0.698-0.655-1.62-0.982-2.77-0.982
				c-0.508,0-1.197,0.078-2.064,0.233V8.524z"/>
			<path fill="#58595B" d="M12.115,11.525H5.21L4,14.169c-0.298,0.652-0.448,1.138-0.448,1.458c0,0.256,0.129,0.48,0.389,0.674
				c0.259,0.194,0.817,0.319,1.677,0.377v0.457H0v-0.457c0.745-0.124,1.229-0.285,1.447-0.481c0.448-0.396,0.943-1.198,1.487-2.409
				c0,0,6.227-13.691,5.312-13.787h0.718H9.79l6.087,13.936c0.5,1.12,0.954,1.847,1.361,2.181c0.408,0.333,0.976,0.521,1.704,0.562
				v0.457h-7.037v-0.457c0.71-0.033,1.189-0.144,1.44-0.334c0.249-0.189,0.374-0.42,0.374-0.691c0-0.362-0.174-0.935-0.525-1.717
				L12.115,11.525z M11.748,10.611L8.723,3.843l-3.105,6.769H11.748z"/>
			<g>
				<path fill="#58595B" d="M139.249,0.39c0.181,0,0.357,0.043,0.528,0.13c0.173,0.087,0.308,0.212,0.404,0.374
					c0.098,0.163,0.146,0.331,0.146,0.509c0,0.174-0.048,0.342-0.144,0.504c-0.095,0.16-0.229,0.285-0.399,0.373
					c-0.17,0.089-0.35,0.134-0.535,0.134c-0.188,0-0.366-0.045-0.537-0.134c-0.17-0.088-0.303-0.213-0.397-0.373
					c-0.096-0.162-0.144-0.33-0.144-0.504c0-0.178,0.048-0.346,0.145-0.509c0.097-0.162,0.232-0.287,0.403-0.374
					C138.892,0.433,139.068,0.39,139.249,0.39z M139.249,0.477c-0.166,0-0.327,0.04-0.483,0.119
					c-0.158,0.081-0.279,0.194-0.368,0.343c-0.089,0.147-0.133,0.302-0.133,0.464c0,0.159,0.044,0.313,0.13,0.459
					c0.087,0.146,0.208,0.262,0.365,0.343c0.155,0.081,0.318,0.123,0.489,0.123c0.169,0,0.332-0.042,0.489-0.123
					c0.156-0.081,0.278-0.196,0.365-0.343c0.086-0.146,0.13-0.3,0.13-0.459c0-0.162-0.044-0.316-0.133-0.464
					c-0.089-0.148-0.21-0.262-0.368-0.343C139.576,0.517,139.414,0.477,139.249,0.477z M138.652,0.78h0.587
					c0.146,0,0.259,0.029,0.336,0.092c0.077,0.063,0.116,0.138,0.116,0.227c0,0.072-0.027,0.136-0.079,0.191
					c-0.052,0.054-0.139,0.096-0.26,0.125l0.317,0.426c0.039,0.05,0.074,0.084,0.104,0.104c0.02,0.012,0.047,0.019,0.081,0.021
					v0.048h-0.279l-0.447-0.578h-0.116v0.442c0.007,0.029,0.021,0.053,0.045,0.067c0.021,0.014,0.067,0.021,0.135,0.021v0.048
					h-0.557V1.966c0.048,0,0.083-0.005,0.104-0.017c0.02-0.01,0.034-0.025,0.044-0.047c0.007-0.015,0.01-0.059,0.01-0.133V1.023
					c0-0.07-0.002-0.112-0.005-0.125c-0.006-0.021-0.021-0.038-0.038-0.05c-0.02-0.012-0.051-0.019-0.097-0.019V0.78z
					 M139.012,1.374c0.121,0,0.207-0.01,0.264-0.033c0.056-0.022,0.097-0.052,0.126-0.091c0.029-0.04,0.044-0.085,0.044-0.135
					c0-0.077-0.027-0.142-0.085-0.195c-0.058-0.052-0.132-0.078-0.221-0.078c-0.037,0-0.081,0.009-0.128,0.023V1.374z"/>
			</g>
		</g>
		<text transform="matrix(1 0 0 1 27.1699 28.6338)"><tspan x="0" y="0" fill="#58595B" font-family="'BaskOldFace'" font-size="11.6079">C</tspan><tspan x="8.583" y="0" fill="#58595B" font-family="'BaskOldFace'" font-size="9.4974">ASINO   </tspan><tspan x="50.816" y="0" fill="#58595B" font-family="'BaskOldFace'" font-size="11.6079">H</tspan><tspan x="61.071" y="0" fill="#58595B" font-family="'BaskOldFace'" font-size="9.4974">OTEL</tspan></text>
		<polygon fill="#58595B" points="73.709,22.729 74.325,24.682 76.373,24.665 74.706,25.854 75.355,27.797 73.709,26.58 
			72.063,27.797 72.712,25.854 71.044,24.665 73.093,24.682 		"/>
		<g>
			<rect x="20.184" y="38.941" fill="#58595B" width="11.062" height="0.581"/>
			<rect x="112.756" y="38.941" fill="#58595B" width="11.063" height="0.581"/>
			
				<text transform="matrix(1 0 0 1 32.9375 42.1738)" fill="#58595B" font-family="'BaskOldFace'" font-size="7.5511" letter-spacing="1">COUNCIL BLUFFS</text>
		</g>
	</g>
</g>
</svg>
