<svg xmlns="http://www.w3.org/2000/svg" viewBox="0 0 320 180" role="img" aria-label="A general manager at the center, with every team connected and working together on one property">
  <defs>
    <linearGradient id="screen" x1="0" y1="0" x2="0" y2="1"><stop offset="0" stop-color="#1A4150"/><stop offset="1" stop-color="#0B1D26"/></linearGradient>
    <linearGradient id="promo" x1="0" y1="0" x2="0" y2="1"><stop offset="0" stop-color="#8FEBD0"/><stop offset="1" stop-color="#4FB59A"/></linearGradient>
    <radialGradient id="halo" cx="0.5" cy="0.5" r="0.5"><stop offset="0" stop-color="#68E3BE" stop-opacity="0.55"/><stop offset="1" stop-color="#68E3BE" stop-opacity="0"/></radialGradient>
    <filter id="soft" x="-30%" y="-30%" width="160%" height="160%"><feDropShadow dx="0" dy="6" stdDeviation="7" flood-color="#0B1D26" flood-opacity="0.22"/></filter>
  </defs>
  <rect width="320" height="180" fill="#EFF3F5"/>
  <circle cx="278" cy="24" r="82" fill="#E4EBEE" opacity="0.7"/>
  <g stroke="#68E3BE" stroke-width="2" stroke-linecap="round" stroke-opacity="0.55" fill="none">
    <path d="M160 58 L160 41M188 76 L207 60M193 116 L207 130M127 116 L113 130M132 76 L113 60"/>
  </g>
  <g filter="url(#soft)">
    <circle cx="160" cy="90" r="34" fill="url(#screen)"/>
    <circle cx="160" cy="90" r="34" fill="none" stroke="#68E3BE" stroke-width="1.6" stroke-opacity="0.5"/>
    <circle cx="160" cy="82" r="7" fill="url(#promo)"/>
    <path d="M148 100a12 12 0 0 1 24 0z" fill="url(#promo)"/>
    <circle cx="207" cy="108" r="8" fill="#68E3BE"/>
    <path d="M204 108l3 3 5-6" stroke="#0B1D26" stroke-width="2" stroke-linecap="round" stroke-linejoin="round" fill="none"/>
  </g>
  <g filter="url(#soft)">
    <circle cx="160" cy="26" r="15" fill="#FFFFFF"/>
    <rect x="153" y="20" width="14" height="10" rx="2" fill="none" stroke="#1A4150" stroke-width="1.6"/>
    <polygon points="158,22 158,28 164,25" fill="#1A4150"/>
  </g>
  <g filter="url(#soft)">
    <circle cx="221" cy="60" r="15" fill="#FFFFFF"/>
    <circle cx="221" cy="60" r="7" fill="none" stroke="#1A4150" stroke-width="1.5"/>
    <g stroke="#1A4150" stroke-width="1.4" stroke-linecap="round"><path d="M221 53v3M221 64v3M228 60h-3M214 60h3"/></g>
    <circle cx="221" cy="60" r="2.6" fill="#1A4150"/>
  </g>
  <g filter="url(#soft)">
    <circle cx="207" cy="134" r="15" fill="#FFFFFF"/>
    <path d="M201 128h12l-2 4h-8z" fill="none" stroke="#1A4150" stroke-width="1.6" stroke-linejoin="round"/>
    <circle cx="207" cy="138" r="2.4" fill="none" stroke="#1A4150" stroke-width="1.3"/>
    <g fill="none" stroke="#1A4150" stroke-width="1.3" stroke-linecap="round"><path d="M213 132a5 5 0 0 1 0 8"/></g>
  </g>
  <g filter="url(#soft)">
    <circle cx="113" cy="134" r="15" fill="#FFFFFF"/>
    <circle cx="113" cy="134" r="7" fill="none" stroke="#1A4150" stroke-width="1.5"/>
    <circle cx="113" cy="134" r="3.4" fill="none" stroke="#1A4150" stroke-width="1.3"/>
    <path d="M113 130v8" stroke="#1A4150" stroke-width="1.4" stroke-linecap="round"/>
  </g>
  <g filter="url(#soft)">
    <circle cx="99" cy="60" r="15" fill="#FFFFFF"/>
    <circle cx="99" cy="60" r="4.5" fill="none" stroke="#1A4150" stroke-width="1.5"/>
    <g fill="#1A4150"><rect x="98" y="52" width="2" height="3"/><rect x="98" y="65" width="2" height="3"/><rect x="91" y="59" width="3" height="2"/><rect x="104" y="59" width="3" height="2"/></g>
  </g>
</svg>
