<svg width="1440" height="1024" viewBox="0 0 1440 1024" fill="none" xmlns="http://www.w3.org/2000/svg">
<g clip-path="url(#clip0_1672_1521)">
<rect width="1440" height="1024" fill="#10232D"></rect>
<g opacity="0.5">
<mask id="mask0_1672_1521" style="mask-type:alpha" maskUnits="userSpaceOnUse" x="0" y="0" width="1440" height="1024">
<rect opacity="0.8" width="1440" height="1024" fill="#D9D9D9"></rect>
</mask>
<g mask="url(#mask0_1672_1521)">
<path d="M737.837 684.199L737.835 684.198L735.055 682.848L866.69 618.41L899.396 634.416L866.25 650.66L866.25 650.661L767.753 698.807L737.837 684.199Z" stroke="#F5F8FA" stroke-width="2"></path>
<path d="M737.837 149.199L737.835 149.198L735.055 147.848L866.69 83.4102L899.396 99.4161L866.25 115.66L866.25 115.661L767.753 163.807L737.837 149.199Z" stroke="#F5F8FA" stroke-width="2"></path>
<path d="M-108.163 814.199L-108.165 814.198L-110.945 812.848L20.6897 748.41L53.3961 764.416L20.2504 780.66L20.2495 780.661L-78.2466 828.807L-108.163 814.199Z" stroke="#F5F8FA" stroke-width="2"></path>
<path d="M813.837 938.199L813.835 938.198L811.055 936.848L942.69 872.41L975.396 888.416L942.25 904.66L942.25 904.661L843.753 952.807L813.837 938.199Z" stroke="#F5F8FA" stroke-width="2"></path>
<path d="M-108.163 279.199L-108.165 279.198L-110.945 277.848L20.6897 213.41L53.3961 229.416L20.2504 245.66L20.2495 245.661L-78.2466 293.807L-108.163 279.199Z" stroke="#F5F8FA" stroke-width="2"></path>
<path d="M813.837 403.199L813.835 403.198L811.055 401.848L942.69 337.41L975.396 353.416L942.25 369.66L942.25 369.661L843.753 417.807L813.837 403.199Z" stroke="#F5F8FA" stroke-width="2"></path>
<path d="M647.777 571.22L647.779 571.221L650.559 572.571L518.925 637.009L486.218 621.003L519.364 604.758L519.365 604.758L617.861 556.612L647.777 571.22Z" stroke="#F5F8FA" stroke-width="2"></path>
<path d="M1559.78 690.22L1559.78 690.221L1562.56 691.571L1430.92 756.009L1398.22 740.003L1431.36 723.758L1431.36 723.758L1529.86 675.612L1559.78 690.22Z" stroke="#F5F8FA" stroke-width="2"></path>
<path d="M647.777 36.2203L647.779 36.2213L650.559 37.5712L518.925 102.009L486.218 86.0029L519.364 69.7585L519.365 69.758L617.861 21.612L647.777 36.2203Z" stroke="#F5F8FA" stroke-width="2"></path>
<path d="M1559.78 155.22L1559.78 155.221L1562.56 156.571L1430.92 221.009L1398.22 205.003L1431.36 188.758L1431.36 188.758L1529.86 140.612L1559.78 155.22Z" stroke="#F5F8FA" stroke-width="2"></path>
<path d="M723.777 825.22L723.779 825.221L726.559 826.571L594.925 891.009L562.218 875.003L595.364 858.758L595.365 858.758L693.861 810.612L723.777 825.22Z" stroke="#F5F8FA" stroke-width="2"></path>
<path d="M723.777 290.22L723.779 290.221L726.559 291.571L594.925 356.009L562.218 340.003L595.364 323.758L595.365 323.758L693.861 275.612L723.777 290.22Z" stroke="#F5F8FA" stroke-width="2"></path>
<path d="M808.53 741.945L811.222 743.254L811.202 743.215L866.224 770.142L866.224 770.142L899.344 786.362L866.663 802.368L774.427 757.216L774.425 757.215L768.269 754.222L768.267 754.221L733.315 737.103L733.312 737.102L727.157 734.109L727.154 734.108L717.933 729.592L717.93 729.591L711.775 726.598L711.772 726.596L676.82 709.479L676.818 709.478L670.662 706.485L670.66 706.483L655.331 698.973L655.33 698.973L655.229 698.923C641.59 692.252 641.59 673.254 655.229 666.583L655.229 666.582L676.718 656.052L676.285 655.169L676.718 656.052L697.439 645.896L697.441 645.895L753.5 618.521L753.5 618.521L866.689 563.114L899.523 579.217L866.985 595.129L866.934 595.079L866.301 595.389L787.678 633.818L787.678 633.818L753.159 650.736L753.157 650.737L731.543 661.267L731.541 661.268L710.818 671.424L689.432 681.905L688.159 682.528L689.173 683.518L689.224 683.568L689.339 683.68L689.483 683.751L704.814 691.262L704.819 691.265L710.921 694.207L710.926 694.209L745.926 711.325L745.927 711.325L752.033 714.319L752.033 714.32L761.257 718.836L761.26 718.838L767.415 721.831L767.418 721.832L802.37 738.949L802.373 738.951L808.53 741.945Z" stroke="#F5F8FA" stroke-width="2"></path>
<path d="M808.53 206.945L811.222 208.254L811.202 208.215L866.224 235.142L866.224 235.142L899.344 251.362L866.663 267.368L774.427 222.216L774.425 222.215L768.269 219.222L768.267 219.221L733.315 202.103L733.312 202.102L727.157 199.109L727.154 199.108L717.933 194.592L717.93 194.591L711.775 191.598L711.772 191.596L676.82 174.479L676.818 174.478L670.662 171.485L670.66 171.483L655.331 163.973L655.33 163.973L655.229 163.923C641.59 157.252 641.59 138.254 655.229 131.583L655.229 131.582L676.718 121.052L676.285 120.169L676.718 121.052L697.439 110.896L697.441 110.895L753.5 83.5213L753.5 83.5209L866.689 28.1136L899.523 44.217L866.985 60.1287L866.934 60.0789L866.301 60.3885L787.678 98.8179L787.678 98.8184L753.159 115.736L753.157 115.737L731.543 126.267L731.541 126.268L710.818 136.424L689.432 146.905L688.159 147.528L689.173 148.518L689.224 148.568L689.339 148.68L689.483 148.751L704.814 156.262L704.819 156.265L710.921 159.207L710.926 159.209L745.926 176.325L745.927 176.325L752.033 179.319L752.033 179.32L761.257 183.836L761.26 183.838L767.415 186.831L767.418 186.832L802.37 203.949L802.373 203.951L808.53 206.945Z" stroke="#F5F8FA" stroke-width="2"></path>
<path d="M-37.4695 871.945L-34.778 873.254L-34.7978 873.215L20.2236 900.142L20.2238 900.142L53.3444 916.362L20.6633 932.368L-71.5728 887.216L-71.5751 887.215L-77.7305 884.222L-77.733 884.221L-112.685 867.103L-112.688 867.102L-118.843 864.109L-118.846 864.108L-128.067 859.592L-128.07 859.591L-134.225 856.598L-134.228 856.596L-169.18 839.479L-169.182 839.478L-175.338 836.485L-175.34 836.483L-190.669 828.973L-190.67 828.973L-190.771 828.923C-204.41 822.252 -204.41 803.254 -190.771 796.583L-190.771 796.582L-169.282 786.052L-169.715 785.169L-169.282 786.052L-148.561 775.896L-148.559 775.895L-92.5004 748.521L-92.4996 748.521L20.6885 693.114L53.5232 709.217L20.9853 725.129L20.9343 725.079L20.3009 725.389L-58.3215 763.818L-58.3225 763.818L-92.8406 780.736L-92.8427 780.737L-114.457 791.267L-114.459 791.268L-135.182 801.424L-156.568 811.905L-157.841 812.528L-156.827 813.518L-156.776 813.568L-156.661 813.68L-156.517 813.751L-141.186 821.262L-141.181 821.265L-135.079 824.207L-135.074 824.209L-100.074 841.325L-100.073 841.325L-93.9672 844.319L-93.9667 844.32L-84.7425 848.836L-84.7401 848.838L-78.5846 851.831L-78.5821 851.832L-43.63 868.949L-43.6275 868.951L-37.4695 871.945Z" stroke="#F5F8FA" stroke-width="2"></path>
<path d="M884.53 995.945L887.222 997.254L887.202 997.215L942.224 1024.14L942.224 1024.14L975.344 1040.36L942.663 1056.37L850.427 1011.22L850.425 1011.22L844.269 1008.22L844.267 1008.22L809.315 991.103L809.312 991.102L803.157 988.109L803.154 988.108L793.933 983.592L793.93 983.591L787.775 980.598L787.772 980.596L752.82 963.479L752.818 963.478L746.662 960.485L746.66 960.483L731.331 952.973L731.33 952.973L731.229 952.923C717.59 946.252 717.59 927.254 731.229 920.583L731.229 920.582L752.718 910.052L752.285 909.169L752.718 910.052L773.439 899.896L773.441 899.895L829.5 872.521L829.5 872.521L942.689 817.114L975.523 833.217L942.985 849.129L942.934 849.079L942.301 849.389L863.678 887.818L863.678 887.818L829.159 904.736L829.157 904.737L807.543 915.267L807.541 915.268L786.818 925.424L765.432 935.905L764.159 936.528L765.173 937.518L765.224 937.568L765.339 937.68L765.483 937.751L780.814 945.262L780.819 945.265L786.921 948.207L786.926 948.209L821.926 965.325L821.927 965.325L828.033 968.319L828.033 968.32L837.257 972.836L837.26 972.838L843.415 975.831L843.418 975.832L878.37 992.949L878.373 992.951L884.53 995.945Z" stroke="#F5F8FA" stroke-width="2"></path>
<path d="M884.53 -39.0549L887.222 -37.746L887.202 -37.7848L942.224 -10.858L942.224 -10.8578L975.344 5.36249L942.663 21.3676L850.427 -23.7838L850.425 -23.7849L844.269 -26.7782L844.267 -26.7794L809.315 -43.8967L809.312 -43.8979L803.157 -46.8912L803.154 -46.8924L793.933 -51.4079L793.93 -51.4091L787.775 -54.4024L787.772 -54.4036L752.82 -71.5209L752.818 -71.5221L746.662 -74.5153L746.66 -74.5166L731.331 -82.0265L731.33 -82.0271L731.229 -82.0767C717.59 -88.7481 717.59 -107.746 731.229 -114.417L731.229 -114.418L752.718 -124.948L752.285 -125.831L752.718 -124.948L773.439 -135.104L773.441 -135.105L829.5 -162.479L829.5 -162.479L942.689 -217.886L975.523 -201.783L942.985 -185.871L942.934 -185.921L942.301 -185.611L863.678 -147.182L863.678 -147.182L829.159 -130.264L829.157 -130.263L807.543 -119.733L807.541 -119.732L786.818 -109.576L765.432 -99.0951L764.159 -98.4716L765.173 -97.4817L765.224 -97.4318L765.339 -97.3197L765.483 -97.2492L780.814 -89.738L780.819 -89.7353L786.921 -86.7931L786.926 -86.7907L821.926 -69.675L821.927 -69.6746L828.033 -66.6805L828.033 -66.6803L837.257 -62.1636L837.26 -62.1624L843.415 -59.1691L843.418 -59.1679L878.37 -42.0506L878.373 -42.0494L884.53 -39.0549Z" stroke="#F5F8FA" stroke-width="2"></path>
<path d="M-37.4695 336.945L-34.778 338.254L-34.7978 338.215L20.2236 365.142L20.2238 365.142L53.3444 381.362L20.6633 397.368L-71.5728 352.216L-71.5751 352.215L-77.7305 349.222L-77.733 349.221L-112.685 332.103L-112.688 332.102L-118.843 329.109L-118.846 329.108L-128.067 324.592L-128.07 324.591L-134.225 321.598L-134.228 321.596L-169.18 304.479L-169.182 304.478L-175.338 301.485L-175.34 301.483L-190.669 293.973L-190.67 293.973L-190.771 293.923C-204.41 287.252 -204.41 268.254 -190.771 261.583L-190.771 261.582L-169.282 251.052L-169.715 250.169L-169.282 251.052L-148.561 240.896L-148.559 240.895L-92.5004 213.521L-92.4996 213.521L20.6885 158.114L53.5232 174.217L20.9853 190.129L20.9343 190.079L20.3009 190.389L-58.3215 228.818L-58.3225 228.818L-92.8406 245.736L-92.8427 245.737L-114.457 256.267L-114.459 256.268L-135.182 266.424L-156.568 276.905L-157.841 277.528L-156.827 278.518L-156.776 278.568L-156.661 278.68L-156.517 278.751L-141.186 286.262L-141.181 286.265L-135.079 289.207L-135.074 289.209L-100.074 306.325L-100.073 306.325L-93.9672 309.319L-93.9667 309.32L-84.7425 313.836L-84.7401 313.838L-78.5846 316.831L-78.5821 316.832L-43.63 333.949L-43.6275 333.951L-37.4695 336.945Z" stroke="#F5F8FA" stroke-width="2"></path>
<path d="M884.53 460.945L887.222 462.254L887.202 462.215L942.224 489.142L942.224 489.142L975.344 505.362L942.663 521.368L850.427 476.216L850.425 476.215L844.269 473.222L844.267 473.221L809.315 456.103L809.312 456.102L803.157 453.109L803.154 453.108L793.933 448.592L793.93 448.591L787.775 445.598L787.772 445.596L752.82 428.479L752.818 428.478L746.662 425.485L746.66 425.483L731.331 417.973L731.33 417.973L731.229 417.923C717.59 411.252 717.59 392.254 731.229 385.583L731.229 385.582L752.718 375.052L752.285 374.169L752.718 375.052L773.439 364.896L773.441 364.895L829.5 337.521L829.5 337.521L942.689 282.114L975.523 298.217L942.985 314.129L942.934 314.079L942.301 314.389L863.678 352.818L863.678 352.818L829.159 369.736L829.157 369.737L807.543 380.267L807.541 380.268L786.818 390.424L765.432 400.905L764.159 401.528L765.173 402.518L765.224 402.568L765.339 402.68L765.483 402.751L780.814 410.262L780.819 410.265L786.921 413.207L786.926 413.209L821.926 430.325L821.927 430.325L828.033 433.319L828.033 433.32L837.257 437.836L837.26 437.838L843.415 440.831L843.418 440.832L878.37 457.949L878.373 457.951L884.53 460.945Z" stroke="#F5F8FA" stroke-width="2"></path>
<path d="M577.084 513.474L574.392 512.165L574.412 512.204L519.391 485.277L519.39 485.277L486.27 469.056L518.951 453.051L611.187 498.203L611.189 498.204L617.345 501.197L617.347 501.198L652.299 518.316L652.302 518.317L658.457 521.31L658.46 521.311L667.682 525.827L667.684 525.828L673.839 528.821L673.842 528.823L708.794 545.94L708.797 545.941L714.952 548.934L714.955 548.936L730.283 556.445L730.284 556.446L730.386 556.496C744.024 563.167 744.024 582.165 730.386 588.836L730.385 588.837L708.896 599.367L709.329 600.25L708.896 599.367L688.175 609.523L688.174 609.524L632.115 636.898L632.114 636.898L518.926 692.305L486.091 676.202L518.629 660.29L518.68 660.34L519.313 660.03L597.936 621.601L597.937 621.601L632.455 604.683L632.457 604.682L654.072 594.152L654.074 594.151L674.796 583.995L696.183 573.514L697.455 572.891L696.441 571.901L696.39 571.851L696.276 571.739L696.132 571.668L680.801 564.157L680.795 564.154L674.693 561.212L674.688 561.21L639.688 544.094L639.687 544.094L633.581 541.099L633.581 541.099L624.357 536.583L624.354 536.581L618.199 533.588L618.196 533.587L583.244 516.47L583.242 516.468L577.084 513.474Z" stroke="#F5F8FA" stroke-width="2"></path>
<path d="M1489.08 632.474L1486.39 631.165L1486.41 631.204L1431.39 604.277L1431.39 604.277L1398.27 588.056L1430.95 572.051L1523.19 617.203L1523.19 617.204L1529.34 620.197L1529.35 620.198L1564.3 637.316L1564.3 637.317L1570.46 640.31L1570.46 640.311L1579.68 644.827L1579.68 644.828L1585.84 647.821L1585.84 647.823L1620.79 664.94L1620.8 664.941L1626.95 667.934L1626.95 667.936L1642.28 675.445L1642.28 675.446L1642.39 675.496C1656.02 682.167 1656.02 701.165 1642.39 707.836L1642.39 707.837L1620.9 718.367L1621.33 719.25L1620.9 718.367L1600.17 728.523L1600.17 728.524L1544.11 755.898L1544.11 755.898L1430.93 811.305L1398.09 795.202L1430.63 779.29L1430.68 779.34L1431.31 779.03L1509.94 740.601L1509.94 740.601L1544.45 723.683L1544.46 723.682L1566.07 713.152L1566.07 713.151L1586.8 702.995L1608.18 692.514L1609.45 691.891L1608.44 690.901L1608.39 690.851L1608.28 690.739L1608.13 690.668L1592.8 683.157L1592.79 683.154L1586.69 680.212L1586.69 680.21L1551.69 663.094L1551.69 663.094L1545.58 660.099L1545.58 660.099L1536.36 655.583L1536.35 655.581L1530.2 652.588L1530.2 652.587L1495.24 635.47L1495.24 635.468L1489.08 632.474Z" stroke="#F5F8FA" stroke-width="2"></path>
<path d="M577.084 1013.47L574.392 1012.16L574.412 1012.2L519.391 985.277L519.39 985.277L486.27 969.056L518.951 953.051L611.187 998.203L611.189 998.204L617.345 1001.2L617.347 1001.2L652.299 1018.32L652.302 1018.32L658.457 1021.31L658.46 1021.31L667.682 1025.83L667.684 1025.83L673.839 1028.82L673.842 1028.82L708.794 1045.94L708.797 1045.94L714.952 1048.93L714.955 1048.94L730.283 1056.45L730.284 1056.45L730.386 1056.5C744.024 1063.17 744.024 1082.16 730.386 1088.84L730.385 1088.84L708.896 1099.37L709.329 1100.25L708.896 1099.37L688.175 1109.52L688.174 1109.52L632.115 1136.9L632.114 1136.9L518.926 1192.31L486.091 1176.2L518.629 1160.29L518.68 1160.34L519.313 1160.03L597.936 1121.6L597.937 1121.6L632.455 1104.68L632.457 1104.68L654.072 1094.15L654.074 1094.15L674.796 1083.99L696.183 1073.51L697.455 1072.89L696.441 1071.9L696.39 1071.85L696.276 1071.74L696.132 1071.67L680.801 1064.16L680.795 1064.15L674.693 1061.21L674.688 1061.21L639.688 1044.09L639.687 1044.09L633.581 1041.1L633.581 1041.1L624.357 1036.58L624.354 1036.58L618.199 1033.59L618.196 1033.59L583.244 1016.47L583.242 1016.47L577.084 1013.47Z" stroke="#F5F8FA" stroke-width="2"></path>
<path d="M577.084 -21.5262L574.392 -22.835L574.412 -22.7963L519.391 -49.7231L519.39 -49.7232L486.27 -65.9436L518.951 -81.9486L611.187 -36.7973L611.189 -36.7962L617.345 -33.8029L617.347 -33.8017L652.299 -16.6844L652.302 -16.6832L658.457 -13.6899L658.46 -13.6887L667.682 -9.17315L667.684 -9.17196L673.839 -6.17869L673.842 -6.17747L708.794 10.9398L708.797 10.9411L714.952 13.9343L714.955 13.9356L730.283 21.4454L730.284 21.446L730.386 21.4956C744.024 28.1671 744.024 47.1649 730.386 53.8363L730.385 53.8366L708.896 64.3672L709.329 65.2504L708.896 64.3673L688.175 74.523L688.174 74.5236L632.115 101.898L632.114 101.898L518.926 157.305L486.091 141.202L518.629 125.29L518.68 125.34L519.313 125.03L597.936 86.6011L597.937 86.6006L632.455 69.6827L632.457 69.6817L654.072 59.1521L654.074 59.1511L674.796 48.9948L696.183 38.514L697.455 37.8906L696.441 36.9007L696.39 36.8508L696.276 36.7387L696.132 36.6681L680.801 29.1569L680.795 29.1542L674.693 26.212L674.688 26.2096L639.688 9.09399L639.687 9.09351L633.581 6.09948L633.581 6.09922L624.357 1.58252L624.354 1.58133L618.199 -1.41194L618.196 -1.41316L583.244 -18.5305L583.242 -18.5317L577.084 -21.5262Z" stroke="#F5F8FA" stroke-width="2"></path>
<path d="M1489.08 97.4738L1486.39 96.165L1486.41 96.2037L1431.39 69.2769L1431.39 69.2768L1398.27 53.0564L1430.95 37.0514L1523.19 82.2027L1523.19 82.2038L1529.34 85.1971L1529.35 85.1983L1564.3 102.316L1564.3 102.317L1570.46 105.31L1570.46 105.311L1579.68 109.827L1579.68 109.828L1585.84 112.821L1585.84 112.823L1620.79 129.94L1620.8 129.941L1626.95 132.934L1626.95 132.936L1642.28 140.445L1642.28 140.446L1642.39 140.496C1656.02 147.167 1656.02 166.165 1642.39 172.836L1642.39 172.837L1620.9 183.367L1621.33 184.25L1620.9 183.367L1600.17 193.523L1600.17 193.524L1544.11 220.898L1544.11 220.898L1430.93 276.305L1398.09 260.202L1430.63 244.29L1430.68 244.34L1431.31 244.03L1509.94 205.601L1509.94 205.601L1544.45 188.683L1544.46 188.682L1566.07 178.152L1566.07 178.151L1586.8 167.995L1608.18 157.514L1609.45 156.891L1608.44 155.901L1608.39 155.851L1608.28 155.739L1608.13 155.668L1592.8 148.157L1592.79 148.154L1586.69 145.212L1586.69 145.21L1551.69 128.094L1551.69 128.094L1545.58 125.099L1545.58 125.099L1536.36 120.583L1536.35 120.581L1530.2 117.588L1530.2 117.587L1495.24 100.47L1495.24 100.468L1489.08 97.4738Z" stroke="#F5F8FA" stroke-width="2"></path>
<path d="M653.084 767.474L650.392 766.165L650.412 766.204L595.391 739.277L595.39 739.277L562.27 723.056L594.951 707.051L687.187 752.203L687.189 752.204L693.345 755.197L693.347 755.198L728.299 772.316L728.302 772.317L734.457 775.31L734.46 775.311L743.682 779.827L743.684 779.828L749.839 782.821L749.842 782.823L784.794 799.94L784.797 799.941L790.952 802.934L790.955 802.936L806.283 810.445L806.284 810.446L806.386 810.496C820.024 817.167 820.024 836.165 806.386 842.836L806.385 842.837L784.896 853.367L785.329 854.25L784.896 853.367L764.175 863.523L764.174 863.524L708.115 890.898L708.114 890.898L594.926 946.305L562.091 930.202L594.629 914.29L594.68 914.34L595.313 914.03L673.936 875.601L673.937 875.601L708.455 858.683L708.457 858.682L730.072 848.152L730.074 848.151L750.796 837.995L772.183 827.514L773.455 826.891L772.441 825.901L772.39 825.851L772.276 825.739L772.132 825.668L756.801 818.157L756.795 818.154L750.693 815.212L750.688 815.21L715.688 798.094L715.687 798.094L709.581 795.099L709.581 795.099L700.357 790.583L700.354 790.581L694.199 787.588L694.196 787.587L659.244 770.47L659.242 770.468L653.084 767.474Z" stroke="#F5F8FA" stroke-width="2"></path>
<path d="M653.084 232.474L650.392 231.165L650.412 231.204L595.391 204.277L595.39 204.277L562.27 188.056L594.951 172.051L687.187 217.203L687.189 217.204L693.345 220.197L693.347 220.198L728.299 237.316L728.302 237.317L734.457 240.31L734.46 240.311L743.682 244.827L743.684 244.828L749.839 247.821L749.842 247.823L784.794 264.94L784.797 264.941L790.952 267.934L790.955 267.936L806.283 275.445L806.284 275.446L806.386 275.496C820.024 282.167 820.024 301.165 806.386 307.836L806.385 307.837L784.896 318.367L785.329 319.25L784.896 318.367L764.175 328.523L764.174 328.524L708.115 355.898L708.114 355.898L594.926 411.305L562.091 395.202L594.629 379.29L594.68 379.34L595.313 379.03L673.936 340.601L673.937 340.601L708.455 323.683L708.457 323.682L730.072 313.152L730.074 313.151L750.796 302.995L772.183 292.514L773.455 291.891L772.441 290.901L772.39 290.851L772.276 290.739L772.132 290.668L756.801 283.157L756.795 283.154L750.693 280.212L750.688 280.21L715.688 263.094L715.687 263.094L709.581 260.099L709.581 260.099L700.357 255.583L700.354 255.581L694.199 252.588L694.196 252.587L659.244 235.47L659.242 235.468L653.084 232.474Z" stroke="#F5F8FA" stroke-width="2"></path>
<path d="M129.514 529.687L249.412 588.369L237.779 594.017L237.776 594.019L216.676 604.334L118.333 556.188L117.893 555.973L117.453 556.189L75.4512 576.76L42.7224 560.755L106.272 529.687L106.272 529.687C113.584 526.104 122.202 526.104 129.513 529.687L129.514 529.687Z" stroke="#F5F8FA" stroke-width="2"></path>
<path d="M1051.51 653.687L1171.41 712.369L1159.78 718.017L1159.78 718.019L1138.68 728.334L1040.33 680.188L1039.89 679.973L1039.45 680.189L997.451 700.76L964.722 684.755L1028.27 653.687L1028.27 653.687C1035.58 650.104 1044.2 650.104 1051.51 653.687L1051.51 653.687Z" stroke="#F5F8FA" stroke-width="2"></path>
<path d="M129.514 -5.31319L249.412 53.3692L237.779 59.0175L237.776 59.0187L216.676 69.3344L118.333 21.1885L117.893 20.9731L117.453 21.1885L75.4512 41.7601L42.7224 25.755L106.272 -5.31299L106.272 -5.31337C113.584 -8.89554 122.202 -8.89554 129.513 -5.31337L129.514 -5.31319Z" stroke="#F5F8FA" stroke-width="2"></path>
<path d="M1051.51 118.687L1171.41 177.369L1159.78 183.017L1159.78 183.019L1138.68 193.334L1040.33 145.188L1039.89 144.973L1039.45 145.189L997.451 165.76L964.722 149.755L1028.27 118.687L1028.27 118.687C1035.58 115.104 1044.2 115.104 1051.51 118.687L1051.51 118.687Z" stroke="#F5F8FA" stroke-width="2"></path>
<path d="M205.514 783.687L325.412 842.369L313.779 848.017L313.776 848.019L292.676 858.334L194.333 810.188L193.893 809.973L193.453 810.189L151.451 830.76L118.722 814.755L182.272 783.687L182.272 783.687C189.584 780.104 198.202 780.104 205.513 783.687L205.514 783.687Z" stroke="#F5F8FA" stroke-width="2"></path>
<path d="M1127.51 907.687L1247.41 966.369L1235.78 972.017L1235.78 972.019L1214.68 982.334L1116.33 934.188L1115.89 933.973L1115.45 934.189L1073.45 954.76L1040.72 938.755L1104.27 907.687L1104.27 907.687C1111.58 904.104 1120.2 904.104 1127.51 907.687L1127.51 907.687Z" stroke="#F5F8FA" stroke-width="2"></path>
<path d="M205.514 248.687L325.412 307.369L313.779 313.017L313.776 313.019L292.676 323.334L194.333 275.188L193.893 274.973L193.453 275.189L151.451 295.76L118.722 279.755L182.272 248.687L182.272 248.687C189.584 245.104 198.202 245.104 205.513 248.687L205.514 248.687Z" stroke="#F5F8FA" stroke-width="2"></path>
<path d="M1127.51 372.687L1247.41 431.369L1235.78 437.017L1235.78 437.019L1214.68 447.334L1116.33 399.188L1115.89 398.973L1115.45 399.189L1073.45 419.76L1040.72 403.755L1104.27 372.687L1104.27 372.687C1111.58 369.104 1120.2 369.104 1127.51 372.687L1127.51 372.687Z" stroke="#F5F8FA" stroke-width="2"></path>
<path d="M334.101 601.732L214.202 543.05L225.836 537.401L225.838 537.4L246.938 527.084L345.282 575.23L345.722 575.446L346.161 575.23L388.163 554.659L420.892 570.664L357.343 601.732L357.342 601.732C350.031 605.314 341.412 605.314 334.101 601.732L334.101 601.732Z" stroke="#F5F8FA" stroke-width="2"></path>
<path d="M1246.1 720.732L1126.2 662.05L1137.84 656.401L1137.84 656.4L1158.94 646.084L1257.28 694.23L1257.72 694.446L1258.16 694.23L1300.16 673.659L1332.89 689.664L1269.34 720.732L1269.34 720.732C1262.03 724.314 1253.41 724.314 1246.1 720.732L1246.1 720.732Z" stroke="#F5F8FA" stroke-width="2"></path>
<path d="M334.101 66.7321L214.202 8.04969L225.836 2.40145L225.838 2.40026L246.938 -7.9155L345.282 40.2305L345.722 40.4458L346.161 40.2304L388.163 19.6589L420.892 35.664L357.343 66.7319L357.342 66.7323C350.031 70.3145 341.412 70.3145 334.101 66.7323L334.101 66.7321Z" stroke="#F5F8FA" stroke-width="2"></path>
<path d="M1246.1 185.732L1126.2 127.05L1137.84 121.401L1137.84 121.4L1158.94 111.084L1257.28 159.23L1257.72 159.446L1258.16 159.23L1300.16 138.659L1332.89 154.664L1269.34 185.732L1269.34 185.732C1262.03 189.314 1253.41 189.314 1246.1 185.732L1246.1 185.732Z" stroke="#F5F8FA" stroke-width="2"></path>
<path d="M410.101 855.732L290.202 797.05L301.836 791.401L301.838 791.4L322.938 781.084L421.282 829.23L421.722 829.446L422.161 829.23L464.163 808.659L496.892 824.664L433.343 855.732L433.342 855.732C426.031 859.314 417.412 859.314 410.101 855.732L410.101 855.732Z" stroke="#F5F8FA" stroke-width="2"></path>
<path d="M1322.1 974.732L1202.2 916.05L1213.84 910.401L1213.84 910.4L1234.94 900.084L1333.28 948.23L1333.72 948.446L1334.16 948.23L1376.16 927.659L1408.89 943.664L1345.34 974.732L1345.34 974.732C1338.03 978.314 1329.41 978.314 1322.1 974.732L1322.1 974.732Z" stroke="#F5F8FA" stroke-width="2"></path>
<path d="M410.101 320.732L290.202 262.05L301.836 256.401L301.838 256.4L322.938 246.084L421.282 294.23L421.722 294.446L422.161 294.23L464.163 273.659L496.892 289.664L433.343 320.732L433.342 320.732C426.031 324.314 417.412 324.314 410.101 320.732L410.101 320.732Z" stroke="#F5F8FA" stroke-width="2"></path>
<path d="M1322.1 439.732L1202.2 381.05L1213.84 375.401L1213.84 375.4L1234.94 365.084L1333.28 413.23L1333.72 413.446L1334.16 413.23L1376.16 392.659L1408.89 408.664L1345.34 439.732L1345.34 439.732C1338.03 443.314 1329.41 443.314 1322.1 439.732L1322.1 439.732Z" stroke="#F5F8FA" stroke-width="2"></path>
<path d="M283.745 605.673L305.35 616.258L272.732 632.174L272.73 632.175L266.624 635.169L266.624 635.169L152.511 690.991L152.51 690.992L127.725 703.144C121.538 706.177 114.223 706.177 108.036 703.144L108.036 703.144L83.3017 691.041L83.3016 691.041L-30.8886 635.144L-30.8909 635.143L-37.0463 632.15L-37.0489 632.148L-72.001 615.031L-72.0035 615.03L-78.16 612.036L-78.1615 612.035L-93.542 604.525L-93.5421 604.525L-93.8468 604.376C-93.8472 604.376 -93.8477 604.376 -93.8482 604.376C-107.359 597.742 -107.382 578.956 -93.9294 572.3L-90.8427 573.807L-90.8424 573.807L-59.3384 589.203L-59.3375 589.204L-44.0077 596.714L-44.0074 596.714L-37.9009 599.709L-37.8999 599.709L-2.89515 616.827L-2.89419 616.828L3.21169 619.822L3.21246 619.822L117.454 675.719L117.893 675.934L118.332 675.72L118.434 675.67L118.435 675.669L238.655 616.828L238.656 616.827L272.634 600.248L283.743 605.673L283.745 605.673Z" stroke="#F5F8FA" stroke-width="2"></path>
<path d="M1205.74 729.673L1227.35 740.258L1194.73 756.174L1194.73 756.175L1188.62 759.169L1188.62 759.169L1074.51 814.991L1074.51 814.992L1049.72 827.144C1043.54 830.177 1036.22 830.177 1030.04 827.144L1030.04 827.144L1005.3 815.041L1005.3 815.041L891.111 759.144L891.109 759.143L884.954 756.15L884.951 756.148L849.999 739.031L849.996 739.03L843.84 736.036L843.839 736.035L828.458 728.525L828.458 728.525L828.153 728.376C828.153 728.376 828.152 728.376 828.152 728.376C814.641 721.742 814.618 702.956 828.071 696.3L831.157 697.807L831.158 697.807L862.662 713.203L862.662 713.204L877.992 720.714L877.993 720.714L884.099 723.709L884.1 723.709L919.105 740.827L919.106 740.828L925.212 743.822L925.212 743.822L1039.45 799.719L1039.89 799.934L1040.33 799.72L1040.43 799.67L1040.44 799.669L1160.65 740.828L1160.66 740.827L1194.63 724.248L1205.74 729.673L1205.74 729.673Z" stroke="#F5F8FA" stroke-width="2"></path>
<path d="M283.745 70.6734L305.35 81.2581L272.732 97.174L272.73 97.1749L266.624 100.169L266.624 100.169L152.511 155.991L152.51 155.992L127.725 168.144C121.538 171.177 114.223 171.177 108.036 168.144L108.036 168.144L83.3017 156.041L83.3016 156.041L-30.8886 100.144L-30.8909 100.143L-37.0463 97.1497L-37.0489 97.1485L-72.001 80.0312L-72.0035 80.03L-78.16 77.0362L-78.1615 77.0355L-93.542 69.525L-93.5421 69.525L-93.8468 69.3762C-93.8472 69.376 -93.8477 69.3757 -93.8482 69.3755C-107.359 62.7416 -107.382 43.9558 -93.9294 37.2995L-90.8427 38.8068L-90.8424 38.807L-59.3384 54.2031L-59.3375 54.2035L-44.0077 61.7141L-44.0074 61.7143L-37.9009 64.7086L-37.8999 64.7091L-2.89515 81.8271L-2.89419 81.8276L3.21169 84.8216L3.21246 84.822L117.454 140.719L117.893 140.934L118.332 140.72L118.434 140.67L118.435 140.669L238.655 81.828L238.656 81.8274L272.634 65.2479L283.743 70.6728L283.745 70.6734Z" stroke="#F5F8FA" stroke-width="2"></path>
<path d="M1205.74 194.673L1227.35 205.258L1194.73 221.174L1194.73 221.175L1188.62 224.169L1188.62 224.169L1074.51 279.991L1074.51 279.992L1049.72 292.144C1043.54 295.177 1036.22 295.177 1030.04 292.144L1030.04 292.144L1005.3 280.041L1005.3 280.041L891.111 224.144L891.109 224.143L884.954 221.15L884.951 221.148L849.999 204.031L849.996 204.03L843.84 201.036L843.839 201.035L828.458 193.525L828.458 193.525L828.153 193.376C828.153 193.376 828.152 193.376 828.152 193.376C814.641 186.742 814.618 167.956 828.071 161.3L831.157 162.807L831.158 162.807L862.662 178.203L862.662 178.204L877.992 185.714L877.993 185.714L884.099 188.709L884.1 188.709L919.105 205.827L919.106 205.828L925.212 208.822L925.212 208.822L1039.45 264.719L1039.89 264.934L1040.33 264.72L1040.43 264.67L1040.44 264.669L1160.65 205.828L1160.66 205.827L1194.63 189.248L1205.74 194.673L1205.74 194.673Z" stroke="#F5F8FA" stroke-width="2"></path>
<path d="M359.745 859.673L381.35 870.258L348.732 886.174L348.73 886.175L342.624 889.169L342.624 889.169L228.511 944.991L228.51 944.992L203.725 957.144C197.538 960.177 190.223 960.177 184.036 957.144L184.036 957.144L159.302 945.041L159.302 945.041L45.1114 889.144L45.1091 889.143L38.9537 886.15L38.9511 886.148L3.99901 869.031L3.9965 869.03L-2.15998 866.036L-2.16145 866.035L-17.542 858.525L-17.5421 858.525L-17.8468 858.376C-17.8472 858.376 -17.8477 858.376 -17.8482 858.376C-31.3585 851.742 -31.3822 832.956 -17.9294 826.3L-14.8427 827.807L-14.8424 827.807L16.6616 843.203L16.6625 843.204L31.9923 850.714L31.9926 850.714L38.0991 853.709L38.1001 853.709L73.1049 870.827L73.1058 870.828L79.2117 873.822L79.2125 873.822L193.454 929.719L193.893 929.934L194.332 929.72L194.434 929.67L194.435 929.669L314.655 870.828L314.656 870.827L348.634 854.248L359.743 859.673L359.745 859.673Z" stroke="#F5F8FA" stroke-width="2"></path>
<path d="M1281.74 983.673L1303.35 994.258L1270.73 1010.17L1270.73 1010.17L1264.62 1013.17L1264.62 1013.17L1150.51 1068.99L1150.51 1068.99L1125.72 1081.14C1119.54 1084.18 1112.22 1084.18 1106.04 1081.14L1106.04 1081.14L1081.3 1069.04L1081.3 1069.04L967.111 1013.14L967.109 1013.14L960.954 1010.15L960.951 1010.15L925.999 993.031L925.996 993.03L919.84 990.036L919.839 990.035L904.458 982.525L904.458 982.525L904.153 982.376C904.153 982.376 904.152 982.376 904.152 982.376C890.641 975.742 890.618 956.956 904.071 950.3L907.157 951.807L907.158 951.807L938.662 967.203L938.662 967.204L953.992 974.714L953.993 974.714L960.099 977.709L960.1 977.709L995.105 994.827L995.106 994.828L1001.21 997.822L1001.21 997.822L1115.45 1053.72L1115.89 1053.93L1116.33 1053.72L1116.43 1053.67L1116.44 1053.67L1236.65 994.828L1236.66 994.827L1270.63 978.248L1281.74 983.673L1281.74 983.673Z" stroke="#F5F8FA" stroke-width="2"></path>
<path d="M1281.74 -51.3266L1303.35 -40.7419L1270.73 -24.826L1270.73 -24.8251L1264.62 -21.831L1264.62 -21.8306L1150.51 33.9913L1150.51 33.9917L1125.72 46.1444C1119.54 49.1774 1112.22 49.1774 1106.04 46.1443L1106.04 46.144L1081.3 34.0414L1081.3 34.0413L967.111 -21.8559L967.109 -21.857L960.954 -24.8503L960.951 -24.8515L925.999 -41.9688L925.996 -41.97L919.84 -44.9638L919.839 -44.9645L904.458 -52.475L904.458 -52.475L904.153 -52.6238C904.153 -52.624 904.152 -52.6243 904.152 -52.6245C890.641 -59.2584 890.618 -78.0442 904.071 -84.7005L907.157 -83.1932L907.158 -83.193L938.662 -67.7969L938.662 -67.7965L953.992 -60.2859L953.993 -60.2857L960.099 -57.2914L960.1 -57.2909L995.105 -40.1729L995.106 -40.1724L1001.21 -37.1784L1001.21 -37.178L1115.45 18.7192L1115.89 18.934L1116.33 18.7196L1116.43 18.6697L1116.44 18.6693L1236.65 -40.172L1236.66 -40.1726L1270.63 -56.7521L1281.74 -51.3272L1281.74 -51.3266Z" stroke="#F5F8FA" stroke-width="2"></path>
<path d="M359.745 324.673L381.35 335.258L348.732 351.174L348.73 351.175L342.624 354.169L342.624 354.169L228.511 409.991L228.51 409.992L203.725 422.144C197.538 425.177 190.223 425.177 184.036 422.144L184.036 422.144L159.302 410.041L159.302 410.041L45.1114 354.144L45.1091 354.143L38.9537 351.15L38.9511 351.148L3.99901 334.031L3.9965 334.03L-2.15998 331.036L-2.16145 331.035L-17.542 323.525L-17.5421 323.525L-17.8468 323.376C-17.8472 323.376 -17.8477 323.376 -17.8482 323.376C-31.3585 316.742 -31.3822 297.956 -17.9294 291.3L-14.8427 292.807L-14.8424 292.807L16.6616 308.203L16.6625 308.204L31.9923 315.714L31.9926 315.714L38.0991 318.709L38.1001 318.709L73.1049 335.827L73.1058 335.828L79.2117 338.822L79.2125 338.822L193.454 394.719L193.893 394.934L194.332 394.72L194.434 394.67L194.435 394.669L314.655 335.828L314.656 335.827L348.634 319.248L359.743 324.673L359.745 324.673Z" stroke="#F5F8FA" stroke-width="2"></path>
<path d="M1281.74 448.673L1303.35 459.258L1270.73 475.174L1270.73 475.175L1264.62 478.169L1264.62 478.169L1150.51 533.991L1150.51 533.992L1125.72 546.144C1119.54 549.177 1112.22 549.177 1106.04 546.144L1106.04 546.144L1081.3 534.041L1081.3 534.041L967.111 478.144L967.109 478.143L960.954 475.15L960.951 475.148L925.999 458.031L925.996 458.03L919.84 455.036L919.839 455.035L904.458 447.525L904.458 447.525L904.153 447.376C904.153 447.376 904.152 447.376 904.152 447.376C890.641 440.742 890.618 421.956 904.071 415.3L907.157 416.807L907.158 416.807L938.662 432.203L938.662 432.204L953.992 439.714L953.993 439.714L960.099 442.709L960.1 442.709L995.105 459.827L995.106 459.828L1001.21 462.822L1001.21 462.822L1115.45 518.719L1115.89 518.934L1116.33 518.72L1116.43 518.67L1116.44 518.669L1236.65 459.828L1236.66 459.827L1270.63 443.248L1281.74 448.673L1281.74 448.673Z" stroke="#F5F8FA" stroke-width="2"></path>
<path d="M179.87 525.746L158.264 515.161L190.882 499.245L190.884 499.244L196.99 496.25L196.991 496.25L311.103 440.428L311.104 440.427L335.889 428.275C342.076 425.242 349.391 425.242 355.578 428.275L355.579 428.275L380.313 440.378L380.313 440.378L494.503 496.275L494.505 496.276L500.661 499.269L500.663 499.27L535.615 516.388L535.618 516.389L541.774 519.383L541.776 519.383L557.156 526.894L557.156 526.894L557.461 527.043C557.462 527.043 557.462 527.043 557.462 527.043C570.973 533.677 570.996 552.463 557.544 559.119L554.457 557.612L554.457 557.612L522.953 542.216L522.952 542.215L507.622 534.705L507.622 534.705L501.515 531.71L501.514 531.71L466.509 514.592L466.508 514.591L460.403 511.597L460.402 511.597L346.16 455.7L345.721 455.485L345.282 455.699L345.18 455.749L345.179 455.75L224.96 514.591L224.959 514.591L190.98 531.171L179.871 525.746L179.87 525.746Z" stroke="#F5F8FA" stroke-width="2"></path>
<path d="M1091.87 644.746L1070.26 634.161L1102.88 618.245L1102.88 618.244L1108.99 615.25L1108.99 615.25L1223.1 559.428L1223.1 559.427L1247.89 547.275C1254.08 544.242 1261.39 544.242 1267.58 547.275L1267.58 547.275L1292.31 559.378L1292.31 559.378L1406.5 615.275L1406.51 615.276L1412.66 618.269L1412.66 618.27L1447.62 635.388L1447.62 635.389L1453.77 638.383L1453.78 638.383L1469.16 645.894L1469.16 645.894L1469.46 646.043C1469.46 646.043 1469.46 646.043 1469.46 646.043C1482.97 652.677 1483 671.463 1469.54 678.119L1466.46 676.612L1466.46 676.612L1434.95 661.216L1434.95 661.215L1419.62 653.705L1419.62 653.705L1413.52 650.71L1413.51 650.71L1378.51 633.592L1378.51 633.591L1372.4 630.597L1372.4 630.597L1258.16 574.7L1257.72 574.485L1257.28 574.699L1257.18 574.749L1257.18 574.75L1136.96 633.591L1136.96 633.591L1102.98 650.171L1091.87 644.746L1091.87 644.746Z" stroke="#F5F8FA" stroke-width="2"></path>
<path d="M179.87 1025.75L158.264 1015.16L190.882 999.245L190.884 999.244L196.99 996.25L196.991 996.25L311.103 940.428L311.104 940.427L335.889 928.275C342.076 925.242 349.391 925.242 355.578 928.275L355.579 928.275L380.313 940.378L380.313 940.378L494.503 996.275L494.505 996.276L500.661 999.269L500.663 999.27L535.615 1016.39L535.618 1016.39L541.774 1019.38L541.776 1019.38L557.156 1026.89L557.156 1026.89L557.461 1027.04C557.462 1027.04 557.462 1027.04 557.462 1027.04C570.973 1033.68 570.996 1052.46 557.544 1059.12L554.457 1057.61L554.457 1057.61L522.953 1042.22L522.952 1042.22L507.622 1034.7L507.622 1034.7L501.515 1031.71L501.514 1031.71L466.509 1014.59L466.508 1014.59L460.403 1011.6L460.402 1011.6L346.16 955.7L345.721 955.485L345.282 955.699L345.18 955.749L345.179 955.75L224.96 1014.59L224.959 1014.59L190.98 1031.17L179.871 1025.75L179.87 1025.75Z" stroke="#F5F8FA" stroke-width="2"></path>
<path d="M179.87 -9.25445L158.264 -19.8392L190.882 -35.7551L190.884 -35.756L196.99 -38.75L196.991 -38.7505L311.103 -94.5724L311.104 -94.5728L335.889 -106.725C342.076 -109.758 349.391 -109.758 355.578 -106.725L355.579 -106.725L380.313 -94.6224L380.313 -94.6224L494.503 -38.7252L494.505 -38.724L500.661 -35.7308L500.663 -35.7295L535.615 -18.6122L535.618 -18.611L541.774 -15.6172L541.776 -15.6165L557.156 -8.10606L557.156 -8.10605L557.461 -7.95724C557.462 -7.95701 557.462 -7.95678 557.462 -7.95656C570.973 -1.32265 570.996 17.4631 557.544 24.1194L554.457 22.6121L554.457 22.612L522.953 7.21588L522.952 7.21544L507.622 -0.295175L507.622 -0.295322L501.515 -3.28966L501.514 -3.29013L466.509 -20.4082L466.508 -20.4087L460.403 -23.4027L460.402 -23.4031L346.16 -79.3003L345.721 -79.5151L345.282 -79.3007L345.18 -79.2508L345.179 -79.2503L224.96 -20.4091L224.959 -20.4085L190.98 -3.829L179.871 -9.25388L179.87 -9.25445Z" stroke="#F5F8FA" stroke-width="2"></path>
<path d="M1091.87 109.746L1070.26 99.1608L1102.88 83.2449L1102.88 83.244L1108.99 80.25L1108.99 80.2495L1223.1 24.4276L1223.1 24.4272L1247.89 12.2745C1254.08 9.24153 1261.39 9.24153 1267.58 12.2746L1267.58 12.2749L1292.31 24.3776L1292.31 24.3776L1406.5 80.2748L1406.51 80.276L1412.66 83.2692L1412.66 83.2705L1447.62 100.388L1447.62 100.389L1453.77 103.383L1453.78 103.383L1469.16 110.894L1469.16 110.894L1469.46 111.043C1469.46 111.043 1469.46 111.043 1469.46 111.043C1482.97 117.677 1483 136.463 1469.54 143.119L1466.46 141.612L1466.46 141.612L1434.95 126.216L1434.95 126.215L1419.62 118.705L1419.62 118.705L1413.52 115.71L1413.51 115.71L1378.51 98.5918L1378.51 98.5913L1372.4 95.5973L1372.4 95.5969L1258.16 39.6997L1257.72 39.4849L1257.28 39.6993L1257.18 39.7492L1257.18 39.7497L1136.96 98.5909L1136.96 98.5915L1102.98 115.171L1091.87 109.746L1091.87 109.746Z" stroke="#F5F8FA" stroke-width="2"></path>
<path d="M255.87 779.746L234.264 769.161L266.882 753.245L266.884 753.244L272.99 750.25L272.991 750.25L387.103 694.428L387.104 694.427L411.889 682.275C418.076 679.242 425.391 679.242 431.578 682.275L431.579 682.275L456.313 694.378L456.313 694.378L570.503 750.275L570.505 750.276L576.661 753.269L576.663 753.27L611.615 770.388L611.618 770.389L617.774 773.383L617.776 773.383L633.156 780.894L633.156 780.894L633.461 781.043C633.462 781.043 633.462 781.043 633.462 781.043C646.973 787.677 646.996 806.463 633.544 813.119L630.457 811.612L630.457 811.612L598.953 796.216L598.952 796.215L583.622 788.705L583.622 788.705L577.515 785.71L577.514 785.71L542.509 768.592L542.508 768.591L536.403 765.597L536.402 765.597L422.16 709.7L421.721 709.485L421.282 709.699L421.18 709.749L421.179 709.75L300.96 768.591L300.959 768.591L266.98 785.171L255.871 779.746L255.87 779.746Z" stroke="#F5F8FA" stroke-width="2"></path>
<path d="M1167.87 898.746L1146.26 888.161L1178.88 872.245L1178.88 872.244L1184.99 869.25L1184.99 869.25L1299.1 813.428L1299.1 813.427L1323.89 801.275C1330.08 798.242 1337.39 798.242 1343.58 801.275L1343.58 801.275L1368.31 813.378L1368.31 813.378L1482.5 869.275L1482.51 869.276L1488.66 872.269L1488.66 872.27L1523.62 889.388L1523.62 889.389L1529.77 892.383L1529.78 892.383L1545.16 899.894L1545.16 899.894L1545.46 900.043C1545.46 900.043 1545.46 900.043 1545.46 900.043C1558.97 906.677 1559 925.463 1545.54 932.119L1542.46 930.612L1542.46 930.612L1510.95 915.216L1510.95 915.215L1495.62 907.705L1495.62 907.705L1489.52 904.71L1489.51 904.71L1454.51 887.592L1454.51 887.591L1448.4 884.597L1448.4 884.597L1334.16 828.7L1333.72 828.485L1333.28 828.699L1333.18 828.749L1333.18 828.75L1212.96 887.591L1212.96 887.591L1178.98 904.171L1167.87 898.746L1167.87 898.746Z" stroke="#F5F8FA" stroke-width="2"></path>
<path d="M255.87 244.746L234.264 234.161L266.882 218.245L266.884 218.244L272.99 215.25L272.991 215.25L387.103 159.428L387.104 159.427L411.889 147.275C418.076 144.242 425.391 144.242 431.578 147.275L431.579 147.275L456.313 159.378L456.313 159.378L570.503 215.275L570.505 215.276L576.661 218.269L576.663 218.27L611.615 235.388L611.618 235.389L617.774 238.383L617.776 238.383L633.156 245.894L633.156 245.894L633.461 246.043C633.462 246.043 633.462 246.043 633.462 246.043C646.973 252.677 646.996 271.463 633.544 278.119L630.457 276.612L630.457 276.612L598.953 261.216L598.952 261.215L583.622 253.705L583.622 253.705L577.515 250.71L577.514 250.71L542.509 233.592L542.508 233.591L536.403 230.597L536.402 230.597L422.16 174.7L421.721 174.485L421.282 174.699L421.18 174.749L421.179 174.75L300.96 233.591L300.959 233.591L266.98 250.171L255.871 244.746L255.87 244.746Z" stroke="#F5F8FA" stroke-width="2"></path>
<path d="M1167.87 363.746L1146.26 353.161L1178.88 337.245L1178.88 337.244L1184.99 334.25L1184.99 334.25L1299.1 278.428L1299.1 278.427L1323.89 266.275C1330.08 263.242 1337.39 263.242 1343.58 266.275L1343.58 266.275L1368.31 278.378L1368.31 278.378L1482.5 334.275L1482.51 334.276L1488.66 337.269L1488.66 337.27L1523.62 354.388L1523.62 354.389L1529.77 357.383L1529.78 357.383L1545.16 364.894L1545.16 364.894L1545.46 365.043C1545.46 365.043 1545.46 365.043 1545.46 365.043C1558.97 371.677 1559 390.463 1545.54 397.119L1542.46 395.612L1542.46 395.612L1510.95 380.216L1510.95 380.215L1495.62 372.705L1495.62 372.705L1489.52 369.71L1489.51 369.71L1454.51 352.592L1454.51 352.591L1448.4 349.597L1448.4 349.597L1334.16 293.7L1333.72 293.485L1333.28 293.699L1333.18 293.749L1333.18 293.75L1212.96 352.591L1212.96 352.591L1178.98 369.171L1167.87 363.746L1167.87 363.746Z" stroke="#F5F8FA" stroke-width="2"></path>
</g>
</g>
</g>
<defs>
<clipPath id="clip0_1672_1521">
<rect width="1440" height="1024" fill="white"></rect>
</clipPath>
</defs>
</svg>